classDiagram
namespace guitool {
  class TabTemplate
}

TabTemplate <|-- TabDefault

TabDefault <|-- TabActuatorControl
TabDefault <|-- TabAlarmWarn
TabDefault <|-- TabCellStatus
TabDefault <|-- TabConfigView
TabDefault <|-- TabDetailedForce
TabDefault <|-- TabDiagnostics
TabDefault <|-- TabOverview
TabDefault <|-- TabRigidBodyPos
TabDefault <|-- TabUtilityView
TabDefault <|-- TabSettings
TabDefault <|-- TabIlc
TabDefault <|-- TabIlcStatus
TabDefault <|-- TabNetForceMoment
TabDefault <|-- TabRealtimeNetForceMoment
TabDefault <|-- TabLimitSwitchStatus
TabDefault <|-- TabHardpointSelection
