classDiagram
namespace m2gui {
  class Model
  class UtilityMonitor
  class SignalDetailedForce
  class ActuatorForceAxial
  class ActuatorForceTangent
}

Model *-- UtilityMonitor
UtilityMonitor *-- SignalDetailedForce : emit()
UtilityMonitor *-- ActuatorForceAxial
UtilityMonitor *-- ActuatorForceTangent

namespace guitool {
  class FigureConstant
  class Gauge
}

namespace display {
  class ViewMirror
  class ItemActuator
}

ViewMirror "1" *-- "n" ItemActuator
ItemActuator ..> Gauge

TabDefault *-- Model
TabDefault <|-- TabCellStatus

TabCellStatus *-- ViewMirror
TabCellStatus "1" *-- "3" FigureConstant
TabCellStatus ..> Gauge
TabCellStatus ..> ItemActuator

TabCellStatus --> SignalDetailedForce : connect()
TabCellStatus *-- ActuatorForceAxial
TabCellStatus *-- ActuatorForceTangent
